<svg xmlns="http://www.w3.org/2000/svg" viewBox="0 0 100 100" width="100" height="100">
  <defs>
    <style>
      .logo-path {
        fill: none;
        stroke: currentColor;
        stroke-width: 3;
        stroke-linecap: round;
        stroke-linejoin: round;
      }
    </style>
  </defs>
  <!-- Stylized signature-like logo design -->
  <path class="logo-path" d="M15 20 Q25 10 35 25 Q40 30 45 15 Q50 5 60 20 Q65 30 70 15"/>
  <path class="logo-path" d="M20 35 Q30 45 40 35 Q50 25 60 40 Q70 50 80 35"/>
  <path class="logo-path" d="M25 55 Q35 65 45 55 Q55 45 65 60 Q75 70 85 55"/>
  <path class="logo-path" d="M10 75 Q25 85 40 75 Q55 65 70 80 Q85 90 95 75"/>
  <!-- Additional decorative element -->
  <circle class="logo-path" cx="80" cy="25" r="6"/>
  <path class="logo-path" d="M20 85 L30 75 L40 85"/>
</svg> 